 999
VISION3D DXF
0
SECTION
2
HEADER
0
ENDSEC
0
SECTION
2
TABLES
0
ENDSEC
0
SECTION
2
BLOCKS
 0
BLOCK
 70
0
 2
TOP_PLACE_BOUND_Polygon_37
 10
0
 20
0
 30
0
0
3DFACE
8
8
 62
8
 10
-0.0425000020186417
 20
-0.0425000020186417
 30
0
 11
-0.0425000020186417
 21
-0.0336900002268981
 31
0
 12
-0.0140000006649643
 22
0.0425000020186417
 32
0
 13
-0.0140000006649643
 23
0.0425000020186417
 33
0
0
3DFACE
8
8
 62
8
 10
-0.0425000020186417
 20
-0.0336900002268981
 30
0
 11
-0.0545000025886111
 21
-0.0336900002268981
 31
0
 12
-0.0545000025886111
 22
0.0336900002268981
 32
0
 13
-0.0545000025886111
 23
0.0336900002268981
 33
0
0
3DFACE
8
8
 62
8
 10
-0.0425000020186417
 20
-0.0336900002268981
 30
0
 11
-0.0545000025886111
 21
0.0336900002268981
 31
0
 12
-0.0425000020186417
 22
0.0336900002268981
 32
0
 13
-0.0425000020186417
 23
0.0336900002268981
 33
0
0
3DFACE
8
8
 62
8
 10
-0.0425000020186417
 20
-0.0336900002268981
 30
0
 11
-0.0425000020186417
 21
0.0336900002268981
 31
0
 12
-0.0140000006649643
 22
0.0425000020186417
 32
0
 13
-0.0140000006649643
 23
0.0425000020186417
 33
0
0
3DFACE
8
8
 62
8
 10
-0.0425000020186417
 20
0.0336900002268981
 30
0
 11
-0.0425000020186417
 21
0.0425000020186417
 31
0
 12
-0.0140000006649643
 22
0.0425000020186417
 32
0
 13
-0.0140000006649643
 23
0.0425000020186417
 33
0
0
3DFACE
8
8
 62
8
 10
-0.0425000020186417
 20
-0.0425000020186417
 30
0
 11
-0.0140000006649643
 21
0.0425000020186417
 31
0
 12
0.0140000006649643
 22
0.0545000025886111
 32
0
 13
0.0140000006649643
 23
0.0545000025886111
 33
0
0
3DFACE
8
8
 62
8
 10
-0.0140000006649643
 20
0.0425000020186417
 30
0
 11
-0.0140000006649643
 21
0.0545000025886111
 31
0
 12
0.0140000006649643
 22
0.0545000025886111
 32
0
 13
0.0140000006649643
 23
0.0545000025886111
 33
0
0
3DFACE
8
8
 62
8
 10
-0.0425000020186417
 20
-0.0425000020186417
 30
0
 11
0.0140000006649643
 21
0.0545000025886111
 31
0
 12
0.0140000006649643
 22
0.0425000020186417
 32
0
 13
0.0140000006649643
 23
0.0425000020186417
 33
0
0
3DFACE
8
8
 62
8
 10
-0.0425000020186417
 20
-0.0425000020186417
 30
0
 11
0.0140000006649643
 21
0.0425000020186417
 31
0
 12
0.0425000020186417
 22
0.0425000020186417
 32
0
 13
0.0425000020186417
 23
0.0425000020186417
 33
0
0
3DFACE
8
8
 62
8
 10
-0.0425000020186417
 20
-0.0425000020186417
 30
0
 11
0.0425000020186417
 21
0.0425000020186417
 31
0
 12
0.0425000020186417
 22
0.0336900002268981
 32
0
 13
0.0425000020186417
 23
0.0336900002268981
 33
0
0
3DFACE
8
8
 62
8
 10
-0.0425000020186417
 20
-0.0425000020186417
 30
0
 11
0.0425000020186417
 21
0.0336900002268981
 31
0
 12
0.0545000025886111
 22
0.0336900002268981
 32
0
 13
0.0545000025886111
 23
0.0336900002268981
 33
0
0
3DFACE
8
8
 62
8
 10
-0.0425000020186417
 20
-0.0425000020186417
 30
0
 11
0.0545000025886111
 21
0.0336900002268981
 31
0
 12
0.0425000020186417
 22
-0.0336900002268981
 32
0
 13
0.0425000020186417
 23
-0.0336900002268981
 33
0
0
3DFACE
8
8
 62
8
 10
0.0545000025886111
 20
0.0336900002268981
 30
0
 11
0.0545000025886111
 21
-0.0336900002268981
 31
0
 12
0.0425000020186417
 22
-0.0336900002268981
 32
0
 13
0.0425000020186417
 23
-0.0336900002268981
 33
0
0
3DFACE
8
8
 62
8
 10
-0.0425000020186417
 20
-0.0425000020186417
 30
0
 11
0.0425000020186417
 21
-0.0336900002268981
 31
0
 12
-0.0140000006649643
 22
-0.0425000020186417
 32
0
 13
-0.0140000006649643
 23
-0.0425000020186417
 33
0
0
3DFACE
8
8
 62
8
 10
0.0425000020186417
 20
-0.0336900002268981
 30
0
 11
0.0425000020186417
 21
-0.0425000020186417
 31
0
 12
0.0140000006649643
 22
-0.0425000020186417
 32
0
 13
0.0140000006649643
 23
-0.0425000020186417
 33
0
0
3DFACE
8
8
 62
8
 10
0.0425000020186417
 20
-0.0336900002268981
 30
0
 11
0.0140000006649643
 21
-0.0425000020186417
 31
0
 12
-0.0140000006649643
 22
-0.0425000020186417
 32
0
 13
-0.0140000006649643
 23
-0.0425000020186417
 33
0
0
3DFACE
8
8
 62
8
 10
0.0140000006649643
 20
-0.0425000020186417
 30
0
 11
0.0140000006649643
 21
-0.0545000025886111
 31
0
 12
-0.0140000006649643
 22
-0.0545000025886111
 32
0
 13
-0.0140000006649643
 23
-0.0545000025886111
 33
0
0
3DFACE
8
8
 62
8
 10
0.0140000006649643
 20
-0.0425000020186417
 30
0
 11
-0.0140000006649643
 21
-0.0545000025886111
 31
0
 12
-0.0140000006649643
 22
-0.0425000020186417
 32
0
 13
-0.0140000006649643
 23
-0.0425000020186417
 33
0
0
3DFACE
8
8
 62
8
 10
-0.0425000020186417
 20
-0.0425000020186417
 30
0.020000000949949
 11
-0.0425000020186417
 21
-0.0336900002268981
 31
0.020000000949949
 12
-0.0140000006649643
 22
0.0425000020186417
 32
0.020000000949949
 13
-0.0140000006649643
 23
0.0425000020186417
 33
0.020000000949949
0
3DFACE
8
8
 62
8
 10
-0.0425000020186417
 20
-0.0336900002268981
 30
0.020000000949949
 11
-0.0545000025886111
 21
-0.0336900002268981
 31
0.020000000949949
 12
-0.0545000025886111
 22
0.0336900002268981
 32
0.020000000949949
 13
-0.0545000025886111
 23
0.0336900002268981
 33
0.020000000949949
0
3DFACE
8
8
 62
8
 10
-0.0425000020186417
 20
-0.0336900002268981
 30
0.020000000949949
 11
-0.0545000025886111
 21
0.0336900002268981
 31
0.020000000949949
 12
-0.0425000020186417
 22
0.0336900002268981
 32
0.020000000949949
 13
-0.0425000020186417
 23
0.0336900002268981
 33
0.020000000949949
0
3DFACE
8
8
 62
8
 10
-0.0425000020186417
 20
-0.0336900002268981
 30
0.020000000949949
 11
-0.0425000020186417
 21
0.0336900002268981
 31
0.020000000949949
 12
-0.0140000006649643
 22
0.0425000020186417
 32
0.020000000949949
 13
-0.0140000006649643
 23
0.0425000020186417
 33
0.020000000949949
0
3DFACE
8
8
 62
8
 10
-0.0425000020186417
 20
0.0336900002268981
 30
0.020000000949949
 11
-0.0425000020186417
 21
0.0425000020186417
 31
0.020000000949949
 12
-0.0140000006649643
 22
0.0425000020186417
 32
0.020000000949949
 13
-0.0140000006649643
 23
0.0425000020186417
 33
0.020000000949949
0
3DFACE
8
8
 62
8
 10
-0.0425000020186417
 20
-0.0425000020186417
 30
0.020000000949949
 11
-0.0140000006649643
 21
0.0425000020186417
 31
0.020000000949949
 12
0.0140000006649643
 22
0.0545000025886111
 32
0.020000000949949
 13
0.0140000006649643
 23
0.0545000025886111
 33
0.020000000949949
0
3DFACE
8
8
 62
8
 10
-0.0140000006649643
 20
0.0425000020186417
 30
0.020000000949949
 11
-0.0140000006649643
 21
0.0545000025886111
 31
0.020000000949949
 12
0.0140000006649643
 22
0.0545000025886111
 32
0.020000000949949
 13
0.0140000006649643
 23
0.0545000025886111
 33
0.020000000949949
0
3DFACE
8
8
 62
8
 10
-0.0425000020186417
 20
-0.0425000020186417
 30
0.020000000949949
 11
0.0140000006649643
 21
0.0545000025886111
 31
0.020000000949949
 12
0.0140000006649643
 22
0.0425000020186417
 32
0.020000000949949
 13
0.0140000006649643
 23
0.0425000020186417
 33
0.020000000949949
0
3DFACE
8
8
 62
8
 10
-0.0425000020186417
 20
-0.0425000020186417
 30
0.020000000949949
 11
0.0140000006649643
 21
0.0425000020186417
 31
0.020000000949949
 12
0.0425000020186417
 22
0.0425000020186417
 32
0.020000000949949
 13
0.0425000020186417
 23
0.0425000020186417
 33
0.020000000949949
0
3DFACE
8
8
 62
8
 10
-0.0425000020186417
 20
-0.0425000020186417
 30
0.020000000949949
 11
0.0425000020186417
 21
0.0425000020186417
 31
0.020000000949949
 12
0.0425000020186417
 22
0.0336900002268981
 32
0.020000000949949
 13
0.0425000020186417
 23
0.0336900002268981
 33
0.020000000949949
0
3DFACE
8
8
 62
8
 10
-0.0425000020186417
 20
-0.0425000020186417
 30
0.020000000949949
 11
0.0425000020186417
 21
0.0336900002268981
 31
0.020000000949949
 12
0.0545000025886111
 22
0.0336900002268981
 32
0.020000000949949
 13
0.0545000025886111
 23
0.0336900002268981
 33
0.020000000949949
0
3DFACE
8
8
 62
8
 10
-0.0425000020186417
 20
-0.0425000020186417
 30
0.020000000949949
 11
0.0545000025886111
 21
0.0336900002268981
 31
0.020000000949949
 12
0.0425000020186417
 22
-0.0336900002268981
 32
0.020000000949949
 13
0.0425000020186417
 23
-0.0336900002268981
 33
0.020000000949949
0
3DFACE
8
8
 62
8
 10
0.0545000025886111
 20
0.0336900002268981
 30
0.020000000949949
 11
0.0545000025886111
 21
-0.0336900002268981
 31
0.020000000949949
 12
0.0425000020186417
 22
-0.0336900002268981
 32
0.020000000949949
 13
0.0425000020186417
 23
-0.0336900002268981
 33
0.020000000949949
0
3DFACE
8
8
 62
8
 10
-0.0425000020186417
 20
-0.0425000020186417
 30
0.020000000949949
 11
0.0425000020186417
 21
-0.0336900002268981
 31
0.020000000949949
 12
-0.0140000006649643
 22
-0.0425000020186417
 32
0.020000000949949
 13
-0.0140000006649643
 23
-0.0425000020186417
 33
0.020000000949949
0
3DFACE
8
8
 62
8
 10
0.0425000020186417
 20
-0.0336900002268981
 30
0.020000000949949
 11
0.0425000020186417
 21
-0.0425000020186417
 31
0.020000000949949
 12
0.0140000006649643
 22
-0.0425000020186417
 32
0.020000000949949
 13
0.0140000006649643
 23
-0.0425000020186417
 33
0.020000000949949
0
3DFACE
8
8
 62
8
 10
0.0425000020186417
 20
-0.0336900002268981
 30
0.020000000949949
 11
0.0140000006649643
 21
-0.0425000020186417
 31
0.020000000949949
 12
-0.0140000006649643
 22
-0.0425000020186417
 32
0.020000000949949
 13
-0.0140000006649643
 23
-0.0425000020186417
 33
0.020000000949949
0
3DFACE
8
8
 62
8
 10
0.0140000006649643
 20
-0.0425000020186417
 30
0.020000000949949
 11
0.0140000006649643
 21
-0.0545000025886111
 31
0.020000000949949
 12
-0.0140000006649643
 22
-0.0545000025886111
 32
0.020000000949949
 13
-0.0140000006649643
 23
-0.0545000025886111
 33
0.020000000949949
0
3DFACE
8
8
 62
8
 10
0.0140000006649643
 20
-0.0425000020186417
 30
0.020000000949949
 11
-0.0140000006649643
 21
-0.0545000025886111
 31
0.020000000949949
 12
-0.0140000006649643
 22
-0.0425000020186417
 32
0.020000000949949
 13
-0.0140000006649643
 23
-0.0425000020186417
 33
0.020000000949949
0
3DFACE
8
8
 62
8
 10
-0.0140000006649643
 20
-0.0425000020186417
 30
0
 11
-0.0425000020186417
 21
-0.0425000020186417
 31
0
 12
-0.0425000020186417
 22
-0.0425000020186417
 32
0.020000000949949
 13
-0.0140000006649643
 23
-0.0425000020186417
 33
0.020000000949949
0
3DFACE
8
8
 62
8
 10
-0.0425000020186417
 20
-0.0425000020186417
 30
0
 11
-0.0425000020186417
 21
-0.0336900002268981
 31
0
 12
-0.0425000020186417
 22
-0.0336900002268981
 32
0.020000000949949
 13
-0.0425000020186417
 23
-0.0425000020186417
 33
0.020000000949949
0
3DFACE
8
8
 62
8
 10
-0.0425000020186417
 20
-0.0336900002268981
 30
0
 11
-0.0545000025886111
 21
-0.0336900002268981
 31
0
 12
-0.0545000025886111
 22
-0.0336900002268981
 32
0.020000000949949
 13
-0.0425000020186417
 23
-0.0336900002268981
 33
0.020000000949949
0
3DFACE
8
8
 62
8
 10
-0.0545000025886111
 20
-0.0336900002268981
 30
0
 11
-0.0545000025886111
 21
0.0336900002268981
 31
0
 12
-0.0545000025886111
 22
0.0336900002268981
 32
0.020000000949949
 13
-0.0545000025886111
 23
-0.0336900002268981
 33
0.020000000949949
0
3DFACE
8
8
 62
8
 10
-0.0545000025886111
 20
0.0336900002268981
 30
0
 11
-0.0425000020186417
 21
0.0336900002268981
 31
0
 12
-0.0425000020186417
 22
0.0336900002268981
 32
0.020000000949949
 13
-0.0545000025886111
 23
0.0336900002268981
 33
0.020000000949949
0
3DFACE
8
8
 62
8
 10
-0.0425000020186417
 20
0.0336900002268981
 30
0
 11
-0.0425000020186417
 21
0.0425000020186417
 31
0
 12
-0.0425000020186417
 22
0.0425000020186417
 32
0.020000000949949
 13
-0.0425000020186417
 23
0.0336900002268981
 33
0.020000000949949
0
3DFACE
8
8
 62
8
 10
-0.0425000020186417
 20
0.0425000020186417
 30
0
 11
-0.0140000006649643
 21
0.0425000020186417
 31
0
 12
-0.0140000006649643
 22
0.0425000020186417
 32
0.020000000949949
 13
-0.0425000020186417
 23
0.0425000020186417
 33
0.020000000949949
0
3DFACE
8
8
 62
8
 10
-0.0140000006649643
 20
0.0425000020186417
 30
0
 11
-0.0140000006649643
 21
0.0545000025886111
 31
0
 12
-0.0140000006649643
 22
0.0545000025886111
 32
0.020000000949949
 13
-0.0140000006649643
 23
0.0425000020186417
 33
0.020000000949949
0
3DFACE
8
8
 62
8
 10
-0.0140000006649643
 20
0.0545000025886111
 30
0
 11
0.0140000006649643
 21
0.0545000025886111
 31
0
 12
0.0140000006649643
 22
0.0545000025886111
 32
0.020000000949949
 13
-0.0140000006649643
 23
0.0545000025886111
 33
0.020000000949949
0
3DFACE
8
8
 62
8
 10
0.0140000006649643
 20
0.0545000025886111
 30
0
 11
0.0140000006649643
 21
0.0425000020186417
 31
0
 12
0.0140000006649643
 22
0.0425000020186417
 32
0.020000000949949
 13
0.0140000006649643
 23
0.0545000025886111
 33
0.020000000949949
0
3DFACE
8
8
 62
8
 10
0.0140000006649643
 20
0.0425000020186417
 30
0
 11
0.0425000020186417
 21
0.0425000020186417
 31
0
 12
0.0425000020186417
 22
0.0425000020186417
 32
0.020000000949949
 13
0.0140000006649643
 23
0.0425000020186417
 33
0.020000000949949
0
3DFACE
8
8
 62
8
 10
0.0425000020186417
 20
0.0425000020186417
 30
0
 11
0.0425000020186417
 21
0.0336900002268981
 31
0
 12
0.0425000020186417
 22
0.0336900002268981
 32
0.020000000949949
 13
0.0425000020186417
 23
0.0425000020186417
 33
0.020000000949949
0
3DFACE
8
8
 62
8
 10
0.0425000020186417
 20
0.0336900002268981
 30
0
 11
0.0545000025886111
 21
0.0336900002268981
 31
0
 12
0.0545000025886111
 22
0.0336900002268981
 32
0.020000000949949
 13
0.0425000020186417
 23
0.0336900002268981
 33
0.020000000949949
0
3DFACE
8
8
 62
8
 10
0.0545000025886111
 20
0.0336900002268981
 30
0
 11
0.0545000025886111
 21
-0.0336900002268981
 31
0
 12
0.0545000025886111
 22
-0.0336900002268981
 32
0.020000000949949
 13
0.0545000025886111
 23
0.0336900002268981
 33
0.020000000949949
0
3DFACE
8
8
 62
8
 10
0.0545000025886111
 20
-0.0336900002268981
 30
0
 11
0.0425000020186417
 21
-0.0336900002268981
 31
0
 12
0.0425000020186417
 22
-0.0336900002268981
 32
0.020000000949949
 13
0.0545000025886111
 23
-0.0336900002268981
 33
0.020000000949949
0
3DFACE
8
8
 62
8
 10
0.0425000020186417
 20
-0.0336900002268981
 30
0
 11
0.0425000020186417
 21
-0.0425000020186417
 31
0
 12
0.0425000020186417
 22
-0.0425000020186417
 32
0.020000000949949
 13
0.0425000020186417
 23
-0.0336900002268981
 33
0.020000000949949
0
3DFACE
8
8
 62
8
 10
0.0425000020186417
 20
-0.0425000020186417
 30
0
 11
0.0140000006649643
 21
-0.0425000020186417
 31
0
 12
0.0140000006649643
 22
-0.0425000020186417
 32
0.020000000949949
 13
0.0425000020186417
 23
-0.0425000020186417
 33
0.020000000949949
0
3DFACE
8
8
 62
8
 10
0.0140000006649643
 20
-0.0425000020186417
 30
0
 11
0.0140000006649643
 21
-0.0545000025886111
 31
0
 12
0.0140000006649643
 22
-0.0545000025886111
 32
0.020000000949949
 13
0.0140000006649643
 23
-0.0425000020186417
 33
0.020000000949949
0
3DFACE
8
8
 62
8
 10
0.0140000006649643
 20
-0.0545000025886111
 30
0
 11
-0.0140000006649643
 21
-0.0545000025886111
 31
0
 12
-0.0140000006649643
 22
-0.0545000025886111
 32
0.020000000949949
 13
0.0140000006649643
 23
-0.0545000025886111
 33
0.020000000949949
0
3DFACE
8
8
 62
8
 10
-0.0140000006649643
 20
-0.0545000025886111
 30
0
 11
-0.0140000006649643
 21
-0.0425000020186417
 31
0
 12
-0.0140000006649643
 22
-0.0425000020186417
 32
0.020000000949949
 13
-0.0140000006649643
 23
-0.0545000025886111
 33
0.020000000949949
 0
ENDBLK
 0
BLOCK
 70
0
 2
TOP_VALOR_Polygon_63
 10
0
 20
0
 30
0
0
3DFACE
8
23
 62
23
 10
-0.0695000033010729
 20
-0.0695000033010729
 30
0
 11
-0.0695000033010729
 21
0.0695000033010729
 31
0
 12
0.0695000033010729
 22
0.0695000033010729
 32
0
 13
0.0695000033010729
 23
-0.0695000033010729
 33
0
0
3DFACE
8
23
 62
23
 10
-0.0695000033010729
 20
-0.0695000033010729
 30
0.020000000949949
 11
-0.0695000033010729
 21
0.0695000033010729
 31
0.020000000949949
 12
0.0695000033010729
 22
0.0695000033010729
 32
0.020000000949949
 13
0.0695000033010729
 23
-0.0695000033010729
 33
0.020000000949949
0
3DFACE
8
23
 62
23
 10
0.0695000033010729
 20
-0.0695000033010729
 30
0
 11
-0.0695000033010729
 21
-0.0695000033010729
 31
0
 12
-0.0695000033010729
 22
-0.0695000033010729
 32
0.020000000949949
 13
0.0695000033010729
 23
-0.0695000033010729
 33
0.020000000949949
0
3DFACE
8
23
 62
23
 10
-0.0695000033010729
 20
-0.0695000033010729
 30
0
 11
-0.0695000033010729
 21
0.0695000033010729
 31
0
 12
-0.0695000033010729
 22
0.0695000033010729
 32
0.020000000949949
 13
-0.0695000033010729
 23
-0.0695000033010729
 33
0.020000000949949
0
3DFACE
8
23
 62
23
 10
-0.0695000033010729
 20
0.0695000033010729
 30
0
 11
0.0695000033010729
 21
0.0695000033010729
 31
0
 12
0.0695000033010729
 22
0.0695000033010729
 32
0.020000000949949
 13
-0.0695000033010729
 23
0.0695000033010729
 33
0.020000000949949
0
3DFACE
8
23
 62
23
 10
0.0695000033010729
 20
0.0695000033010729
 30
0
 11
0.0695000033010729
 21
-0.0695000033010729
 31
0
 12
0.0695000033010729
 22
-0.0695000033010729
 32
0.020000000949949
 13
0.0695000033010729
 23
0.0695000033010729
 33
0.020000000949949
 0
ENDBLK
0
ENDSEC
0
SECTION
2
ENTITIES
 0
INSERT
 8
8
 2
TOP_PLACE_BOUND_Polygon_37
 10
0
 20
0
 30
0
 41
1
 42
1
 43
1
 0
INSERT
 8
23
 2
TOP_VALOR_Polygon_63
 10
0
 20
0
 30
0
 41
1
 42
1
 43
1
0
ENDSEC
 0
EOF

