 999
VISION3D DXF
0
SECTION
2
HEADER
0
ENDSEC
0
SECTION
2
TABLES
0
ENDSEC
0
SECTION
2
BLOCKS
 0
BLOCK
 70
0
 2
TOP_PLACE_BOUND_Polygon_37
 10
0
 20
0
 30
0
0
3DFACE
8
8
 62
8
 10
-0.0525000024936162
 20
-0.0525000024936162
 30
0
 11
-0.0525000024936162
 21
-0.0436900007018726
 31
0
 12
-0.0240000011399388
 22
0.0525000024936162
 32
0
 13
-0.0240000011399388
 23
0.0525000024936162
 33
0
0
3DFACE
8
8
 62
8
 10
-0.0525000024936162
 20
-0.0436900007018726
 30
0
 11
-0.0685000032535754
 21
-0.0436900007018726
 31
0
 12
-0.0685000032535754
 22
0.0436900007018726
 32
0
 13
-0.0685000032535754
 23
0.0436900007018726
 33
0
0
3DFACE
8
8
 62
8
 10
-0.0525000024936162
 20
-0.0436900007018726
 30
0
 11
-0.0685000032535754
 21
0.0436900007018726
 31
0
 12
-0.0525000024936162
 22
0.0436900007018726
 32
0
 13
-0.0525000024936162
 23
0.0436900007018726
 33
0
0
3DFACE
8
8
 62
8
 10
-0.0525000024936162
 20
-0.0436900007018726
 30
0
 11
-0.0525000024936162
 21
0.0436900007018726
 31
0
 12
-0.0240000011399388
 22
0.0525000024936162
 32
0
 13
-0.0240000011399388
 23
0.0525000024936162
 33
0
0
3DFACE
8
8
 62
8
 10
-0.0525000024936162
 20
0.0436900007018726
 30
0
 11
-0.0525000024936162
 21
0.0525000024936162
 31
0
 12
-0.0240000011399388
 22
0.0525000024936162
 32
0
 13
-0.0240000011399388
 23
0.0525000024936162
 33
0
0
3DFACE
8
8
 62
8
 10
-0.0525000024936162
 20
-0.0525000024936162
 30
0
 11
-0.0240000011399388
 21
0.0525000024936162
 31
0
 12
0.0240000011399388
 22
0.0685000032535754
 32
0
 13
0.0240000011399388
 23
0.0685000032535754
 33
0
0
3DFACE
8
8
 62
8
 10
-0.0240000011399388
 20
0.0525000024936162
 30
0
 11
-0.0240000011399388
 21
0.0685000032535754
 31
0
 12
0.0240000011399388
 22
0.0685000032535754
 32
0
 13
0.0240000011399388
 23
0.0685000032535754
 33
0
0
3DFACE
8
8
 62
8
 10
-0.0525000024936162
 20
-0.0525000024936162
 30
0
 11
0.0240000011399388
 21
0.0685000032535754
 31
0
 12
0.0240000011399388
 22
0.0525000024936162
 32
0
 13
0.0240000011399388
 23
0.0525000024936162
 33
0
0
3DFACE
8
8
 62
8
 10
-0.0525000024936162
 20
-0.0525000024936162
 30
0
 11
0.0240000011399388
 21
0.0525000024936162
 31
0
 12
0.0525000024936162
 22
0.0525000024936162
 32
0
 13
0.0525000024936162
 23
0.0525000024936162
 33
0
0
3DFACE
8
8
 62
8
 10
-0.0525000024936162
 20
-0.0525000024936162
 30
0
 11
0.0525000024936162
 21
0.0525000024936162
 31
0
 12
0.0525000024936162
 22
0.0436900007018726
 32
0
 13
0.0525000024936162
 23
0.0436900007018726
 33
0
0
3DFACE
8
8
 62
8
 10
-0.0525000024936162
 20
-0.0525000024936162
 30
0
 11
0.0525000024936162
 21
0.0436900007018726
 31
0
 12
0.0685000032535754
 22
0.0436900007018726
 32
0
 13
0.0685000032535754
 23
0.0436900007018726
 33
0
0
3DFACE
8
8
 62
8
 10
-0.0525000024936162
 20
-0.0525000024936162
 30
0
 11
0.0685000032535754
 21
0.0436900007018726
 31
0
 12
0.0525000024936162
 22
-0.0436900007018726
 32
0
 13
0.0525000024936162
 23
-0.0436900007018726
 33
0
0
3DFACE
8
8
 62
8
 10
0.0685000032535754
 20
0.0436900007018726
 30
0
 11
0.0685000032535754
 21
-0.0436900007018726
 31
0
 12
0.0525000024936162
 22
-0.0436900007018726
 32
0
 13
0.0525000024936162
 23
-0.0436900007018726
 33
0
0
3DFACE
8
8
 62
8
 10
-0.0525000024936162
 20
-0.0525000024936162
 30
0
 11
0.0525000024936162
 21
-0.0436900007018726
 31
0
 12
-0.0240000011399388
 22
-0.0525000024936162
 32
0
 13
-0.0240000011399388
 23
-0.0525000024936162
 33
0
0
3DFACE
8
8
 62
8
 10
0.0525000024936162
 20
-0.0436900007018726
 30
0
 11
0.0525000024936162
 21
-0.0525000024936162
 31
0
 12
0.0240000011399388
 22
-0.0525000024936162
 32
0
 13
0.0240000011399388
 23
-0.0525000024936162
 33
0
0
3DFACE
8
8
 62
8
 10
0.0525000024936162
 20
-0.0436900007018726
 30
0
 11
0.0240000011399388
 21
-0.0525000024936162
 31
0
 12
-0.0240000011399388
 22
-0.0525000024936162
 32
0
 13
-0.0240000011399388
 23
-0.0525000024936162
 33
0
0
3DFACE
8
8
 62
8
 10
0.0240000011399388
 20
-0.0525000024936162
 30
0
 11
0.0240000011399388
 21
-0.0685000032535754
 31
0
 12
-0.0240000011399388
 22
-0.0685000032535754
 32
0
 13
-0.0240000011399388
 23
-0.0685000032535754
 33
0
0
3DFACE
8
8
 62
8
 10
0.0240000011399388
 20
-0.0525000024936162
 30
0
 11
-0.0240000011399388
 21
-0.0685000032535754
 31
0
 12
-0.0240000011399388
 22
-0.0525000024936162
 32
0
 13
-0.0240000011399388
 23
-0.0525000024936162
 33
0
0
3DFACE
8
8
 62
8
 10
-0.0525000024936162
 20
-0.0525000024936162
 30
0.020000000949949
 11
-0.0525000024936162
 21
-0.0436900007018726
 31
0.020000000949949
 12
-0.0240000011399388
 22
0.0525000024936162
 32
0.020000000949949
 13
-0.0240000011399388
 23
0.0525000024936162
 33
0.020000000949949
0
3DFACE
8
8
 62
8
 10
-0.0525000024936162
 20
-0.0436900007018726
 30
0.020000000949949
 11
-0.0685000032535754
 21
-0.0436900007018726
 31
0.020000000949949
 12
-0.0685000032535754
 22
0.0436900007018726
 32
0.020000000949949
 13
-0.0685000032535754
 23
0.0436900007018726
 33
0.020000000949949
0
3DFACE
8
8
 62
8
 10
-0.0525000024936162
 20
-0.0436900007018726
 30
0.020000000949949
 11
-0.0685000032535754
 21
0.0436900007018726
 31
0.020000000949949
 12
-0.0525000024936162
 22
0.0436900007018726
 32
0.020000000949949
 13
-0.0525000024936162
 23
0.0436900007018726
 33
0.020000000949949
0
3DFACE
8
8
 62
8
 10
-0.0525000024936162
 20
-0.0436900007018726
 30
0.020000000949949
 11
-0.0525000024936162
 21
0.0436900007018726
 31
0.020000000949949
 12
-0.0240000011399388
 22
0.0525000024936162
 32
0.020000000949949
 13
-0.0240000011399388
 23
0.0525000024936162
 33
0.020000000949949
0
3DFACE
8
8
 62
8
 10
-0.0525000024936162
 20
0.0436900007018726
 30
0.020000000949949
 11
-0.0525000024936162
 21
0.0525000024936162
 31
0.020000000949949
 12
-0.0240000011399388
 22
0.0525000024936162
 32
0.020000000949949
 13
-0.0240000011399388
 23
0.0525000024936162
 33
0.020000000949949
0
3DFACE
8
8
 62
8
 10
-0.0525000024936162
 20
-0.0525000024936162
 30
0.020000000949949
 11
-0.0240000011399388
 21
0.0525000024936162
 31
0.020000000949949
 12
0.0240000011399388
 22
0.0685000032535754
 32
0.020000000949949
 13
0.0240000011399388
 23
0.0685000032535754
 33
0.020000000949949
0
3DFACE
8
8
 62
8
 10
-0.0240000011399388
 20
0.0525000024936162
 30
0.020000000949949
 11
-0.0240000011399388
 21
0.0685000032535754
 31
0.020000000949949
 12
0.0240000011399388
 22
0.0685000032535754
 32
0.020000000949949
 13
0.0240000011399388
 23
0.0685000032535754
 33
0.020000000949949
0
3DFACE
8
8
 62
8
 10
-0.0525000024936162
 20
-0.0525000024936162
 30
0.020000000949949
 11
0.0240000011399388
 21
0.0685000032535754
 31
0.020000000949949
 12
0.0240000011399388
 22
0.0525000024936162
 32
0.020000000949949
 13
0.0240000011399388
 23
0.0525000024936162
 33
0.020000000949949
0
3DFACE
8
8
 62
8
 10
-0.0525000024936162
 20
-0.0525000024936162
 30
0.020000000949949
 11
0.0240000011399388
 21
0.0525000024936162
 31
0.020000000949949
 12
0.0525000024936162
 22
0.0525000024936162
 32
0.020000000949949
 13
0.0525000024936162
 23
0.0525000024936162
 33
0.020000000949949
0
3DFACE
8
8
 62
8
 10
-0.0525000024936162
 20
-0.0525000024936162
 30
0.020000000949949
 11
0.0525000024936162
 21
0.0525000024936162
 31
0.020000000949949
 12
0.0525000024936162
 22
0.0436900007018726
 32
0.020000000949949
 13
0.0525000024936162
 23
0.0436900007018726
 33
0.020000000949949
0
3DFACE
8
8
 62
8
 10
-0.0525000024936162
 20
-0.0525000024936162
 30
0.020000000949949
 11
0.0525000024936162
 21
0.0436900007018726
 31
0.020000000949949
 12
0.0685000032535754
 22
0.0436900007018726
 32
0.020000000949949
 13
0.0685000032535754
 23
0.0436900007018726
 33
0.020000000949949
0
3DFACE
8
8
 62
8
 10
-0.0525000024936162
 20
-0.0525000024936162
 30
0.020000000949949
 11
0.0685000032535754
 21
0.0436900007018726
 31
0.020000000949949
 12
0.0525000024936162
 22
-0.0436900007018726
 32
0.020000000949949
 13
0.0525000024936162
 23
-0.0436900007018726
 33
0.020000000949949
0
3DFACE
8
8
 62
8
 10
0.0685000032535754
 20
0.0436900007018726
 30
0.020000000949949
 11
0.0685000032535754
 21
-0.0436900007018726
 31
0.020000000949949
 12
0.0525000024936162
 22
-0.0436900007018726
 32
0.020000000949949
 13
0.0525000024936162
 23
-0.0436900007018726
 33
0.020000000949949
0
3DFACE
8
8
 62
8
 10
-0.0525000024936162
 20
-0.0525000024936162
 30
0.020000000949949
 11
0.0525000024936162
 21
-0.0436900007018726
 31
0.020000000949949
 12
-0.0240000011399388
 22
-0.0525000024936162
 32
0.020000000949949
 13
-0.0240000011399388
 23
-0.0525000024936162
 33
0.020000000949949
0
3DFACE
8
8
 62
8
 10
0.0525000024936162
 20
-0.0436900007018726
 30
0.020000000949949
 11
0.0525000024936162
 21
-0.0525000024936162
 31
0.020000000949949
 12
0.0240000011399388
 22
-0.0525000024936162
 32
0.020000000949949
 13
0.0240000011399388
 23
-0.0525000024936162
 33
0.020000000949949
0
3DFACE
8
8
 62
8
 10
0.0525000024936162
 20
-0.0436900007018726
 30
0.020000000949949
 11
0.0240000011399388
 21
-0.0525000024936162
 31
0.020000000949949
 12
-0.0240000011399388
 22
-0.0525000024936162
 32
0.020000000949949
 13
-0.0240000011399388
 23
-0.0525000024936162
 33
0.020000000949949
0
3DFACE
8
8
 62
8
 10
0.0240000011399388
 20
-0.0525000024936162
 30
0.020000000949949
 11
0.0240000011399388
 21
-0.0685000032535754
 31
0.020000000949949
 12
-0.0240000011399388
 22
-0.0685000032535754
 32
0.020000000949949
 13
-0.0240000011399388
 23
-0.0685000032535754
 33
0.020000000949949
0
3DFACE
8
8
 62
8
 10
0.0240000011399388
 20
-0.0525000024936162
 30
0.020000000949949
 11
-0.0240000011399388
 21
-0.0685000032535754
 31
0.020000000949949
 12
-0.0240000011399388
 22
-0.0525000024936162
 32
0.020000000949949
 13
-0.0240000011399388
 23
-0.0525000024936162
 33
0.020000000949949
0
3DFACE
8
8
 62
8
 10
-0.0240000011399388
 20
-0.0525000024936162
 30
0
 11
-0.0525000024936162
 21
-0.0525000024936162
 31
0
 12
-0.0525000024936162
 22
-0.0525000024936162
 32
0.020000000949949
 13
-0.0240000011399388
 23
-0.0525000024936162
 33
0.020000000949949
0
3DFACE
8
8
 62
8
 10
-0.0525000024936162
 20
-0.0525000024936162
 30
0
 11
-0.0525000024936162
 21
-0.0436900007018726
 31
0
 12
-0.0525000024936162
 22
-0.0436900007018726
 32
0.020000000949949
 13
-0.0525000024936162
 23
-0.0525000024936162
 33
0.020000000949949
0
3DFACE
8
8
 62
8
 10
-0.0525000024936162
 20
-0.0436900007018726
 30
0
 11
-0.0685000032535754
 21
-0.0436900007018726
 31
0
 12
-0.0685000032535754
 22
-0.0436900007018726
 32
0.020000000949949
 13
-0.0525000024936162
 23
-0.0436900007018726
 33
0.020000000949949
0
3DFACE
8
8
 62
8
 10
-0.0685000032535754
 20
-0.0436900007018726
 30
0
 11
-0.0685000032535754
 21
0.0436900007018726
 31
0
 12
-0.0685000032535754
 22
0.0436900007018726
 32
0.020000000949949
 13
-0.0685000032535754
 23
-0.0436900007018726
 33
0.020000000949949
0
3DFACE
8
8
 62
8
 10
-0.0685000032535754
 20
0.0436900007018726
 30
0
 11
-0.0525000024936162
 21
0.0436900007018726
 31
0
 12
-0.0525000024936162
 22
0.0436900007018726
 32
0.020000000949949
 13
-0.0685000032535754
 23
0.0436900007018726
 33
0.020000000949949
0
3DFACE
8
8
 62
8
 10
-0.0525000024936162
 20
0.0436900007018726
 30
0
 11
-0.0525000024936162
 21
0.0525000024936162
 31
0
 12
-0.0525000024936162
 22
0.0525000024936162
 32
0.020000000949949
 13
-0.0525000024936162
 23
0.0436900007018726
 33
0.020000000949949
0
3DFACE
8
8
 62
8
 10
-0.0525000024936162
 20
0.0525000024936162
 30
0
 11
-0.0240000011399388
 21
0.0525000024936162
 31
0
 12
-0.0240000011399388
 22
0.0525000024936162
 32
0.020000000949949
 13
-0.0525000024936162
 23
0.0525000024936162
 33
0.020000000949949
0
3DFACE
8
8
 62
8
 10
-0.0240000011399388
 20
0.0525000024936162
 30
0
 11
-0.0240000011399388
 21
0.0685000032535754
 31
0
 12
-0.0240000011399388
 22
0.0685000032535754
 32
0.020000000949949
 13
-0.0240000011399388
 23
0.0525000024936162
 33
0.020000000949949
0
3DFACE
8
8
 62
8
 10
-0.0240000011399388
 20
0.0685000032535754
 30
0
 11
0.0240000011399388
 21
0.0685000032535754
 31
0
 12
0.0240000011399388
 22
0.0685000032535754
 32
0.020000000949949
 13
-0.0240000011399388
 23
0.0685000032535754
 33
0.020000000949949
0
3DFACE
8
8
 62
8
 10
0.0240000011399388
 20
0.0685000032535754
 30
0
 11
0.0240000011399388
 21
0.0525000024936162
 31
0
 12
0.0240000011399388
 22
0.0525000024936162
 32
0.020000000949949
 13
0.0240000011399388
 23
0.0685000032535754
 33
0.020000000949949
0
3DFACE
8
8
 62
8
 10
0.0240000011399388
 20
0.0525000024936162
 30
0
 11
0.0525000024936162
 21
0.0525000024936162
 31
0
 12
0.0525000024936162
 22
0.0525000024936162
 32
0.020000000949949
 13
0.0240000011399388
 23
0.0525000024936162
 33
0.020000000949949
0
3DFACE
8
8
 62
8
 10
0.0525000024936162
 20
0.0525000024936162
 30
0
 11
0.0525000024936162
 21
0.0436900007018726
 31
0
 12
0.0525000024936162
 22
0.0436900007018726
 32
0.020000000949949
 13
0.0525000024936162
 23
0.0525000024936162
 33
0.020000000949949
0
3DFACE
8
8
 62
8
 10
0.0525000024936162
 20
0.0436900007018726
 30
0
 11
0.0685000032535754
 21
0.0436900007018726
 31
0
 12
0.0685000032535754
 22
0.0436900007018726
 32
0.020000000949949
 13
0.0525000024936162
 23
0.0436900007018726
 33
0.020000000949949
0
3DFACE
8
8
 62
8
 10
0.0685000032535754
 20
0.0436900007018726
 30
0
 11
0.0685000032535754
 21
-0.0436900007018726
 31
0
 12
0.0685000032535754
 22
-0.0436900007018726
 32
0.020000000949949
 13
0.0685000032535754
 23
0.0436900007018726
 33
0.020000000949949
0
3DFACE
8
8
 62
8
 10
0.0685000032535754
 20
-0.0436900007018726
 30
0
 11
0.0525000024936162
 21
-0.0436900007018726
 31
0
 12
0.0525000024936162
 22
-0.0436900007018726
 32
0.020000000949949
 13
0.0685000032535754
 23
-0.0436900007018726
 33
0.020000000949949
0
3DFACE
8
8
 62
8
 10
0.0525000024936162
 20
-0.0436900007018726
 30
0
 11
0.0525000024936162
 21
-0.0525000024936162
 31
0
 12
0.0525000024936162
 22
-0.0525000024936162
 32
0.020000000949949
 13
0.0525000024936162
 23
-0.0436900007018726
 33
0.020000000949949
0
3DFACE
8
8
 62
8
 10
0.0525000024936162
 20
-0.0525000024936162
 30
0
 11
0.0240000011399388
 21
-0.0525000024936162
 31
0
 12
0.0240000011399388
 22
-0.0525000024936162
 32
0.020000000949949
 13
0.0525000024936162
 23
-0.0525000024936162
 33
0.020000000949949
0
3DFACE
8
8
 62
8
 10
0.0240000011399388
 20
-0.0525000024936162
 30
0
 11
0.0240000011399388
 21
-0.0685000032535754
 31
0
 12
0.0240000011399388
 22
-0.0685000032535754
 32
0.020000000949949
 13
0.0240000011399388
 23
-0.0525000024936162
 33
0.020000000949949
0
3DFACE
8
8
 62
8
 10
0.0240000011399388
 20
-0.0685000032535754
 30
0
 11
-0.0240000011399388
 21
-0.0685000032535754
 31
0
 12
-0.0240000011399388
 22
-0.0685000032535754
 32
0.020000000949949
 13
0.0240000011399388
 23
-0.0685000032535754
 33
0.020000000949949
0
3DFACE
8
8
 62
8
 10
-0.0240000011399388
 20
-0.0685000032535754
 30
0
 11
-0.0240000011399388
 21
-0.0525000024936162
 31
0
 12
-0.0240000011399388
 22
-0.0525000024936162
 32
0.020000000949949
 13
-0.0240000011399388
 23
-0.0685000032535754
 33
0.020000000949949
 0
ENDBLK
 0
BLOCK
 70
0
 2
TOP_VALOR_Polygon_63
 10
0
 20
0
 30
0
0
3DFACE
8
23
 62
23
 10
-0.0735000034910627
 20
-0.0735000034910627
 30
0
 11
-0.0735000034910627
 21
0.0735000034910627
 31
0
 12
0.0735000034910627
 22
0.0735000034910627
 32
0
 13
0.0735000034910627
 23
-0.0735000034910627
 33
0
0
3DFACE
8
23
 62
23
 10
-0.0735000034910627
 20
-0.0735000034910627
 30
0.020000000949949
 11
-0.0735000034910627
 21
0.0735000034910627
 31
0.020000000949949
 12
0.0735000034910627
 22
0.0735000034910627
 32
0.020000000949949
 13
0.0735000034910627
 23
-0.0735000034910627
 33
0.020000000949949
0
3DFACE
8
23
 62
23
 10
0.0735000034910627
 20
-0.0735000034910627
 30
0
 11
-0.0735000034910627
 21
-0.0735000034910627
 31
0
 12
-0.0735000034910627
 22
-0.0735000034910627
 32
0.020000000949949
 13
0.0735000034910627
 23
-0.0735000034910627
 33
0.020000000949949
0
3DFACE
8
23
 62
23
 10
-0.0735000034910627
 20
-0.0735000034910627
 30
0
 11
-0.0735000034910627
 21
0.0735000034910627
 31
0
 12
-0.0735000034910627
 22
0.0735000034910627
 32
0.020000000949949
 13
-0.0735000034910627
 23
-0.0735000034910627
 33
0.020000000949949
0
3DFACE
8
23
 62
23
 10
-0.0735000034910627
 20
0.0735000034910627
 30
0
 11
0.0735000034910627
 21
0.0735000034910627
 31
0
 12
0.0735000034910627
 22
0.0735000034910627
 32
0.020000000949949
 13
-0.0735000034910627
 23
0.0735000034910627
 33
0.020000000949949
0
3DFACE
8
23
 62
23
 10
0.0735000034910627
 20
0.0735000034910627
 30
0
 11
0.0735000034910627
 21
-0.0735000034910627
 31
0
 12
0.0735000034910627
 22
-0.0735000034910627
 32
0.020000000949949
 13
0.0735000034910627
 23
0.0735000034910627
 33
0.020000000949949
 0
ENDBLK
0
ENDSEC
0
SECTION
2
ENTITIES
 0
INSERT
 8
8
 2
TOP_PLACE_BOUND_Polygon_37
 10
0
 20
0
 30
0
 41
1
 42
1
 43
1
 0
INSERT
 8
23
 2
TOP_VALOR_Polygon_63
 10
0
 20
0
 30
0
 41
1
 42
1
 43
1
0
ENDSEC
 0
EOF

