 999
VISION3D DXF
0
SECTION
2
HEADER
0
ENDSEC
0
SECTION
2
TABLES
0
ENDSEC
0
SECTION
2
BLOCKS
 0
BLOCK
 70
0
 2
TOP_PLACE_BOUND_Polygon_37
 10
0
 20
0
 30
0
0
3DFACE
8
8
 62
8
 10
-0.036500001733657
 20
-0.036500001733657
 30
0
 11
-0.036500001733657
 21
-0.0276900018492621
 31
0
 12
-0.00800000037997961
 22
0.036500001733657
 32
0
 13
-0.00800000037997961
 23
0.036500001733657
 33
0
0
3DFACE
8
8
 62
8
 10
-0.036500001733657
 20
-0.0276900018492621
 30
0
 11
-0.0445000021136366
 21
-0.0276900018492621
 31
0
 12
-0.0445000021136366
 22
0.0276900018492621
 32
0
 13
-0.0445000021136366
 23
0.0276900018492621
 33
0
0
3DFACE
8
8
 62
8
 10
-0.036500001733657
 20
-0.0276900018492621
 30
0
 11
-0.0445000021136366
 21
0.0276900018492621
 31
0
 12
-0.036500001733657
 22
0.0276900018492621
 32
0
 13
-0.036500001733657
 23
0.0276900018492621
 33
0
0
3DFACE
8
8
 62
8
 10
-0.036500001733657
 20
-0.0276900018492621
 30
0
 11
-0.036500001733657
 21
0.0276900018492621
 31
0
 12
-0.00800000037997961
 22
0.036500001733657
 32
0
 13
-0.00800000037997961
 23
0.036500001733657
 33
0
0
3DFACE
8
8
 62
8
 10
-0.036500001733657
 20
0.0276900018492621
 30
0
 11
-0.036500001733657
 21
0.036500001733657
 31
0
 12
-0.00800000037997961
 22
0.036500001733657
 32
0
 13
-0.00800000037997961
 23
0.036500001733657
 33
0
0
3DFACE
8
8
 62
8
 10
-0.036500001733657
 20
-0.036500001733657
 30
0
 11
-0.00800000037997961
 21
0.036500001733657
 31
0
 12
0.00800000037997961
 22
0.0445000021136366
 32
0
 13
0.00800000037997961
 23
0.0445000021136366
 33
0
0
3DFACE
8
8
 62
8
 10
-0.00800000037997961
 20
0.036500001733657
 30
0
 11
-0.00800000037997961
 21
0.0445000021136366
 31
0
 12
0.00800000037997961
 22
0.0445000021136366
 32
0
 13
0.00800000037997961
 23
0.0445000021136366
 33
0
0
3DFACE
8
8
 62
8
 10
-0.036500001733657
 20
-0.036500001733657
 30
0
 11
0.00800000037997961
 21
0.0445000021136366
 31
0
 12
0.00800000037997961
 22
0.036500001733657
 32
0
 13
0.00800000037997961
 23
0.036500001733657
 33
0
0
3DFACE
8
8
 62
8
 10
-0.036500001733657
 20
-0.036500001733657
 30
0
 11
0.00800000037997961
 21
0.036500001733657
 31
0
 12
0.036500001733657
 22
0.036500001733657
 32
0
 13
0.036500001733657
 23
0.036500001733657
 33
0
0
3DFACE
8
8
 62
8
 10
-0.036500001733657
 20
-0.036500001733657
 30
0
 11
0.036500001733657
 21
0.036500001733657
 31
0
 12
0.036500001733657
 22
0.0276900018492621
 32
0
 13
0.036500001733657
 23
0.0276900018492621
 33
0
0
3DFACE
8
8
 62
8
 10
-0.036500001733657
 20
-0.036500001733657
 30
0
 11
0.036500001733657
 21
0.0276900018492621
 31
0
 12
0.0445000021136366
 22
0.0276900018492621
 32
0
 13
0.0445000021136366
 23
0.0276900018492621
 33
0
0
3DFACE
8
8
 62
8
 10
-0.036500001733657
 20
-0.036500001733657
 30
0
 11
0.0445000021136366
 21
0.0276900018492621
 31
0
 12
0.036500001733657
 22
-0.0276900018492621
 32
0
 13
0.036500001733657
 23
-0.0276900018492621
 33
0
0
3DFACE
8
8
 62
8
 10
0.0445000021136366
 20
0.0276900018492621
 30
0
 11
0.0445000021136366
 21
-0.0276900018492621
 31
0
 12
0.036500001733657
 22
-0.0276900018492621
 32
0
 13
0.036500001733657
 23
-0.0276900018492621
 33
0
0
3DFACE
8
8
 62
8
 10
-0.036500001733657
 20
-0.036500001733657
 30
0
 11
0.036500001733657
 21
-0.0276900018492621
 31
0
 12
-0.00800000037997961
 22
-0.036500001733657
 32
0
 13
-0.00800000037997961
 23
-0.036500001733657
 33
0
0
3DFACE
8
8
 62
8
 10
0.036500001733657
 20
-0.0276900018492621
 30
0
 11
0.036500001733657
 21
-0.036500001733657
 31
0
 12
0.00800000037997961
 22
-0.036500001733657
 32
0
 13
0.00800000037997961
 23
-0.036500001733657
 33
0
0
3DFACE
8
8
 62
8
 10
0.036500001733657
 20
-0.0276900018492621
 30
0
 11
0.00800000037997961
 21
-0.036500001733657
 31
0
 12
-0.00800000037997961
 22
-0.036500001733657
 32
0
 13
-0.00800000037997961
 23
-0.036500001733657
 33
0
0
3DFACE
8
8
 62
8
 10
0.00800000037997961
 20
-0.036500001733657
 30
0
 11
0.00800000037997961
 21
-0.0445000021136366
 31
0
 12
-0.00800000037997961
 22
-0.0445000021136366
 32
0
 13
-0.00800000037997961
 23
-0.0445000021136366
 33
0
0
3DFACE
8
8
 62
8
 10
0.00800000037997961
 20
-0.036500001733657
 30
0
 11
-0.00800000037997961
 21
-0.0445000021136366
 31
0
 12
-0.00800000037997961
 22
-0.036500001733657
 32
0
 13
-0.00800000037997961
 23
-0.036500001733657
 33
0
0
3DFACE
8
8
 62
8
 10
-0.036500001733657
 20
-0.036500001733657
 30
0.020000000949949
 11
-0.036500001733657
 21
-0.0276900018492621
 31
0.020000000949949
 12
-0.00800000037997961
 22
0.036500001733657
 32
0.020000000949949
 13
-0.00800000037997961
 23
0.036500001733657
 33
0.020000000949949
0
3DFACE
8
8
 62
8
 10
-0.036500001733657
 20
-0.0276900018492621
 30
0.020000000949949
 11
-0.0445000021136366
 21
-0.0276900018492621
 31
0.020000000949949
 12
-0.0445000021136366
 22
0.0276900018492621
 32
0.020000000949949
 13
-0.0445000021136366
 23
0.0276900018492621
 33
0.020000000949949
0
3DFACE
8
8
 62
8
 10
-0.036500001733657
 20
-0.0276900018492621
 30
0.020000000949949
 11
-0.0445000021136366
 21
0.0276900018492621
 31
0.020000000949949
 12
-0.036500001733657
 22
0.0276900018492621
 32
0.020000000949949
 13
-0.036500001733657
 23
0.0276900018492621
 33
0.020000000949949
0
3DFACE
8
8
 62
8
 10
-0.036500001733657
 20
-0.0276900018492621
 30
0.020000000949949
 11
-0.036500001733657
 21
0.0276900018492621
 31
0.020000000949949
 12
-0.00800000037997961
 22
0.036500001733657
 32
0.020000000949949
 13
-0.00800000037997961
 23
0.036500001733657
 33
0.020000000949949
0
3DFACE
8
8
 62
8
 10
-0.036500001733657
 20
0.0276900018492621
 30
0.020000000949949
 11
-0.036500001733657
 21
0.036500001733657
 31
0.020000000949949
 12
-0.00800000037997961
 22
0.036500001733657
 32
0.020000000949949
 13
-0.00800000037997961
 23
0.036500001733657
 33
0.020000000949949
0
3DFACE
8
8
 62
8
 10
-0.036500001733657
 20
-0.036500001733657
 30
0.020000000949949
 11
-0.00800000037997961
 21
0.036500001733657
 31
0.020000000949949
 12
0.00800000037997961
 22
0.0445000021136366
 32
0.020000000949949
 13
0.00800000037997961
 23
0.0445000021136366
 33
0.020000000949949
0
3DFACE
8
8
 62
8
 10
-0.00800000037997961
 20
0.036500001733657
 30
0.020000000949949
 11
-0.00800000037997961
 21
0.0445000021136366
 31
0.020000000949949
 12
0.00800000037997961
 22
0.0445000021136366
 32
0.020000000949949
 13
0.00800000037997961
 23
0.0445000021136366
 33
0.020000000949949
0
3DFACE
8
8
 62
8
 10
-0.036500001733657
 20
-0.036500001733657
 30
0.020000000949949
 11
0.00800000037997961
 21
0.0445000021136366
 31
0.020000000949949
 12
0.00800000037997961
 22
0.036500001733657
 32
0.020000000949949
 13
0.00800000037997961
 23
0.036500001733657
 33
0.020000000949949
0
3DFACE
8
8
 62
8
 10
-0.036500001733657
 20
-0.036500001733657
 30
0.020000000949949
 11
0.00800000037997961
 21
0.036500001733657
 31
0.020000000949949
 12
0.036500001733657
 22
0.036500001733657
 32
0.020000000949949
 13
0.036500001733657
 23
0.036500001733657
 33
0.020000000949949
0
3DFACE
8
8
 62
8
 10
-0.036500001733657
 20
-0.036500001733657
 30
0.020000000949949
 11
0.036500001733657
 21
0.036500001733657
 31
0.020000000949949
 12
0.036500001733657
 22
0.0276900018492621
 32
0.020000000949949
 13
0.036500001733657
 23
0.0276900018492621
 33
0.020000000949949
0
3DFACE
8
8
 62
8
 10
-0.036500001733657
 20
-0.036500001733657
 30
0.020000000949949
 11
0.036500001733657
 21
0.0276900018492621
 31
0.020000000949949
 12
0.0445000021136366
 22
0.0276900018492621
 32
0.020000000949949
 13
0.0445000021136366
 23
0.0276900018492621
 33
0.020000000949949
0
3DFACE
8
8
 62
8
 10
-0.036500001733657
 20
-0.036500001733657
 30
0.020000000949949
 11
0.0445000021136366
 21
0.0276900018492621
 31
0.020000000949949
 12
0.036500001733657
 22
-0.0276900018492621
 32
0.020000000949949
 13
0.036500001733657
 23
-0.0276900018492621
 33
0.020000000949949
0
3DFACE
8
8
 62
8
 10
0.0445000021136366
 20
0.0276900018492621
 30
0.020000000949949
 11
0.0445000021136366
 21
-0.0276900018492621
 31
0.020000000949949
 12
0.036500001733657
 22
-0.0276900018492621
 32
0.020000000949949
 13
0.036500001733657
 23
-0.0276900018492621
 33
0.020000000949949
0
3DFACE
8
8
 62
8
 10
-0.036500001733657
 20
-0.036500001733657
 30
0.020000000949949
 11
0.036500001733657
 21
-0.0276900018492621
 31
0.020000000949949
 12
-0.00800000037997961
 22
-0.036500001733657
 32
0.020000000949949
 13
-0.00800000037997961
 23
-0.036500001733657
 33
0.020000000949949
0
3DFACE
8
8
 62
8
 10
0.036500001733657
 20
-0.0276900018492621
 30
0.020000000949949
 11
0.036500001733657
 21
-0.036500001733657
 31
0.020000000949949
 12
0.00800000037997961
 22
-0.036500001733657
 32
0.020000000949949
 13
0.00800000037997961
 23
-0.036500001733657
 33
0.020000000949949
0
3DFACE
8
8
 62
8
 10
0.036500001733657
 20
-0.0276900018492621
 30
0.020000000949949
 11
0.00800000037997961
 21
-0.036500001733657
 31
0.020000000949949
 12
-0.00800000037997961
 22
-0.036500001733657
 32
0.020000000949949
 13
-0.00800000037997961
 23
-0.036500001733657
 33
0.020000000949949
0
3DFACE
8
8
 62
8
 10
0.00800000037997961
 20
-0.036500001733657
 30
0.020000000949949
 11
0.00800000037997961
 21
-0.0445000021136366
 31
0.020000000949949
 12
-0.00800000037997961
 22
-0.0445000021136366
 32
0.020000000949949
 13
-0.00800000037997961
 23
-0.0445000021136366
 33
0.020000000949949
0
3DFACE
8
8
 62
8
 10
0.00800000037997961
 20
-0.036500001733657
 30
0.020000000949949
 11
-0.00800000037997961
 21
-0.0445000021136366
 31
0.020000000949949
 12
-0.00800000037997961
 22
-0.036500001733657
 32
0.020000000949949
 13
-0.00800000037997961
 23
-0.036500001733657
 33
0.020000000949949
0
3DFACE
8
8
 62
8
 10
-0.00800000037997961
 20
-0.036500001733657
 30
0
 11
-0.036500001733657
 21
-0.036500001733657
 31
0
 12
-0.036500001733657
 22
-0.036500001733657
 32
0.020000000949949
 13
-0.00800000037997961
 23
-0.036500001733657
 33
0.020000000949949
0
3DFACE
8
8
 62
8
 10
-0.036500001733657
 20
-0.036500001733657
 30
0
 11
-0.036500001733657
 21
-0.0276900018492621
 31
0
 12
-0.036500001733657
 22
-0.0276900018492621
 32
0.020000000949949
 13
-0.036500001733657
 23
-0.036500001733657
 33
0.020000000949949
0
3DFACE
8
8
 62
8
 10
-0.036500001733657
 20
-0.0276900018492621
 30
0
 11
-0.0445000021136366
 21
-0.0276900018492621
 31
0
 12
-0.0445000021136366
 22
-0.0276900018492621
 32
0.020000000949949
 13
-0.036500001733657
 23
-0.0276900018492621
 33
0.020000000949949
0
3DFACE
8
8
 62
8
 10
-0.0445000021136366
 20
-0.0276900018492621
 30
0
 11
-0.0445000021136366
 21
0.0276900018492621
 31
0
 12
-0.0445000021136366
 22
0.0276900018492621
 32
0.020000000949949
 13
-0.0445000021136366
 23
-0.0276900018492621
 33
0.020000000949949
0
3DFACE
8
8
 62
8
 10
-0.0445000021136366
 20
0.0276900018492621
 30
0
 11
-0.036500001733657
 21
0.0276900018492621
 31
0
 12
-0.036500001733657
 22
0.0276900018492621
 32
0.020000000949949
 13
-0.0445000021136366
 23
0.0276900018492621
 33
0.020000000949949
0
3DFACE
8
8
 62
8
 10
-0.036500001733657
 20
0.0276900018492621
 30
0
 11
-0.036500001733657
 21
0.036500001733657
 31
0
 12
-0.036500001733657
 22
0.036500001733657
 32
0.020000000949949
 13
-0.036500001733657
 23
0.0276900018492621
 33
0.020000000949949
0
3DFACE
8
8
 62
8
 10
-0.036500001733657
 20
0.036500001733657
 30
0
 11
-0.00800000037997961
 21
0.036500001733657
 31
0
 12
-0.00800000037997961
 22
0.036500001733657
 32
0.020000000949949
 13
-0.036500001733657
 23
0.036500001733657
 33
0.020000000949949
0
3DFACE
8
8
 62
8
 10
-0.00800000037997961
 20
0.036500001733657
 30
0
 11
-0.00800000037997961
 21
0.0445000021136366
 31
0
 12
-0.00800000037997961
 22
0.0445000021136366
 32
0.020000000949949
 13
-0.00800000037997961
 23
0.036500001733657
 33
0.020000000949949
0
3DFACE
8
8
 62
8
 10
-0.00800000037997961
 20
0.0445000021136366
 30
0
 11
0.00800000037997961
 21
0.0445000021136366
 31
0
 12
0.00800000037997961
 22
0.0445000021136366
 32
0.020000000949949
 13
-0.00800000037997961
 23
0.0445000021136366
 33
0.020000000949949
0
3DFACE
8
8
 62
8
 10
0.00800000037997961
 20
0.0445000021136366
 30
0
 11
0.00800000037997961
 21
0.036500001733657
 31
0
 12
0.00800000037997961
 22
0.036500001733657
 32
0.020000000949949
 13
0.00800000037997961
 23
0.0445000021136366
 33
0.020000000949949
0
3DFACE
8
8
 62
8
 10
0.00800000037997961
 20
0.036500001733657
 30
0
 11
0.036500001733657
 21
0.036500001733657
 31
0
 12
0.036500001733657
 22
0.036500001733657
 32
0.020000000949949
 13
0.00800000037997961
 23
0.036500001733657
 33
0.020000000949949
0
3DFACE
8
8
 62
8
 10
0.036500001733657
 20
0.036500001733657
 30
0
 11
0.036500001733657
 21
0.0276900018492621
 31
0
 12
0.036500001733657
 22
0.0276900018492621
 32
0.020000000949949
 13
0.036500001733657
 23
0.036500001733657
 33
0.020000000949949
0
3DFACE
8
8
 62
8
 10
0.036500001733657
 20
0.0276900018492621
 30
0
 11
0.0445000021136366
 21
0.0276900018492621
 31
0
 12
0.0445000021136366
 22
0.0276900018492621
 32
0.020000000949949
 13
0.036500001733657
 23
0.0276900018492621
 33
0.020000000949949
0
3DFACE
8
8
 62
8
 10
0.0445000021136366
 20
0.0276900018492621
 30
0
 11
0.0445000021136366
 21
-0.0276900018492621
 31
0
 12
0.0445000021136366
 22
-0.0276900018492621
 32
0.020000000949949
 13
0.0445000021136366
 23
0.0276900018492621
 33
0.020000000949949
0
3DFACE
8
8
 62
8
 10
0.0445000021136366
 20
-0.0276900018492621
 30
0
 11
0.036500001733657
 21
-0.0276900018492621
 31
0
 12
0.036500001733657
 22
-0.0276900018492621
 32
0.020000000949949
 13
0.0445000021136366
 23
-0.0276900018492621
 33
0.020000000949949
0
3DFACE
8
8
 62
8
 10
0.036500001733657
 20
-0.0276900018492621
 30
0
 11
0.036500001733657
 21
-0.036500001733657
 31
0
 12
0.036500001733657
 22
-0.036500001733657
 32
0.020000000949949
 13
0.036500001733657
 23
-0.0276900018492621
 33
0.020000000949949
0
3DFACE
8
8
 62
8
 10
0.036500001733657
 20
-0.036500001733657
 30
0
 11
0.00800000037997961
 21
-0.036500001733657
 31
0
 12
0.00800000037997961
 22
-0.036500001733657
 32
0.020000000949949
 13
0.036500001733657
 23
-0.036500001733657
 33
0.020000000949949
0
3DFACE
8
8
 62
8
 10
0.00800000037997961
 20
-0.036500001733657
 30
0
 11
0.00800000037997961
 21
-0.0445000021136366
 31
0
 12
0.00800000037997961
 22
-0.0445000021136366
 32
0.020000000949949
 13
0.00800000037997961
 23
-0.036500001733657
 33
0.020000000949949
0
3DFACE
8
8
 62
8
 10
0.00800000037997961
 20
-0.0445000021136366
 30
0
 11
-0.00800000037997961
 21
-0.0445000021136366
 31
0
 12
-0.00800000037997961
 22
-0.0445000021136366
 32
0.020000000949949
 13
0.00800000037997961
 23
-0.0445000021136366
 33
0.020000000949949
0
3DFACE
8
8
 62
8
 10
-0.00800000037997961
 20
-0.0445000021136366
 30
0
 11
-0.00800000037997961
 21
-0.036500001733657
 31
0
 12
-0.00800000037997961
 22
-0.036500001733657
 32
0.020000000949949
 13
-0.00800000037997961
 23
-0.0445000021136366
 33
0.020000000949949
 0
ENDBLK
 0
BLOCK
 70
0
 2
TOP_VALOR_Polygon_63
 10
0
 20
0
 30
0
0
3DFACE
8
23
 62
23
 10
-0.0655000031110831
 20
-0.0655000031110831
 30
0
 11
-0.0655000031110831
 21
0.0655000031110831
 31
0
 12
0.0655000031110831
 22
0.0655000031110831
 32
0
 13
0.0655000031110831
 23
-0.0655000031110831
 33
0
0
3DFACE
8
23
 62
23
 10
-0.0655000031110831
 20
-0.0655000031110831
 30
0.020000000949949
 11
-0.0655000031110831
 21
0.0655000031110831
 31
0.020000000949949
 12
0.0655000031110831
 22
0.0655000031110831
 32
0.020000000949949
 13
0.0655000031110831
 23
-0.0655000031110831
 33
0.020000000949949
0
3DFACE
8
23
 62
23
 10
0.0655000031110831
 20
-0.0655000031110831
 30
0
 11
-0.0655000031110831
 21
-0.0655000031110831
 31
0
 12
-0.0655000031110831
 22
-0.0655000031110831
 32
0.020000000949949
 13
0.0655000031110831
 23
-0.0655000031110831
 33
0.020000000949949
0
3DFACE
8
23
 62
23
 10
-0.0655000031110831
 20
-0.0655000031110831
 30
0
 11
-0.0655000031110831
 21
0.0655000031110831
 31
0
 12
-0.0655000031110831
 22
0.0655000031110831
 32
0.020000000949949
 13
-0.0655000031110831
 23
-0.0655000031110831
 33
0.020000000949949
0
3DFACE
8
23
 62
23
 10
-0.0655000031110831
 20
0.0655000031110831
 30
0
 11
0.0655000031110831
 21
0.0655000031110831
 31
0
 12
0.0655000031110831
 22
0.0655000031110831
 32
0.020000000949949
 13
-0.0655000031110831
 23
0.0655000031110831
 33
0.020000000949949
0
3DFACE
8
23
 62
23
 10
0.0655000031110831
 20
0.0655000031110831
 30
0
 11
0.0655000031110831
 21
-0.0655000031110831
 31
0
 12
0.0655000031110831
 22
-0.0655000031110831
 32
0.020000000949949
 13
0.0655000031110831
 23
0.0655000031110831
 33
0.020000000949949
 0
ENDBLK
0
ENDSEC
0
SECTION
2
ENTITIES
 0
INSERT
 8
8
 2
TOP_PLACE_BOUND_Polygon_37
 10
0
 20
0
 30
0
 41
1
 42
1
 43
1
 0
INSERT
 8
23
 2
TOP_VALOR_Polygon_63
 10
0
 20
0
 30
0
 41
1
 42
1
 43
1
0
ENDSEC
 0
EOF

